<svg xmlns="http://www.w3.org/2000/svg" width="800" height="800" viewBox="0 0 800 800" fill="none">
<rect width="800" height="800" rx="48" fill="#111827"/>
<path d="M255 195l255 205-255 205c-18-10-30-29-30-51V246c0-22 12-41 30-51Z" fill="#34D399"/>
<path d="M510 400 315 255l105-55 135 122-45 78Z" fill="#60A5FA"/>
<path d="M555 478 420 600 315 545l195-145 45 78Z" fill="#FBBF24"/>
<path d="M315 255l195 145-195 145c-11-8-18-21-18-35V290c0-14 7-27 18-35Z" fill="#F87171" fill-opacity="0.9"/>
<text x="400" y="658" fill="white" font-family="Arial, sans-serif" font-size="50" font-weight="800" text-anchor="middle">Google Play</text>
</svg>
